<svg xmlns="http://www.w3.org/2000/svg" viewBox="0 0 362.55 113.73"><defs><style>.cls-1{fill:#fff;}</style></defs><title>1_1</title><g id="Capa_2" data-name="Capa 2"><g id="Capa_1-2" data-name="Capa 1"><path d="M0,63.9A33.61,33.61,0,0,1,2.67,50.58,34.08,34.08,0,0,1,20.76,32.31a33.68,33.68,0,0,1,26.38,0A34.28,34.28,0,0,1,58,39.66a34.64,34.64,0,0,1,7.28,10.92,34.54,34.54,0,0,1,0,26.63A34.64,34.64,0,0,1,58,88.13a34.28,34.28,0,0,1-10.81,7.35,33.68,33.68,0,0,1-26.38,0A34.08,34.08,0,0,1,2.67,77.21,33.56,33.56,0,0,1,0,63.9Zm9.12,0a24.48,24.48,0,0,0,1.94,9.74,25.44,25.44,0,0,0,5.33,8A25,25,0,0,0,24.3,87,23.86,23.86,0,0,0,34,89a23.93,23.93,0,0,0,9.65-2,25.06,25.06,0,0,0,7.9-5.38,25.47,25.47,0,0,0,5.34-8,25.45,25.45,0,0,0,0-19.49A25.22,25.22,0,0,0,43.6,40.78a24.85,24.85,0,0,0-19.3,0,25.18,25.18,0,0,0-7.91,5.39,25.44,25.44,0,0,0-5.33,8A24.53,24.53,0,0,0,9.12,63.9ZM34,86.42a21.29,21.29,0,0,1-8.68-1.77,22.52,22.52,0,0,1-7.08-4.84,23,23,0,0,1-4.81-7.15,22.95,22.95,0,0,1,0-17.53A23,23,0,0,1,18.19,48a22.52,22.52,0,0,1,7.08-4.84A21.29,21.29,0,0,1,34,41.37a21.36,21.36,0,0,1,8.68,1.77,22.76,22.76,0,0,1,11.88,12,22.83,22.83,0,0,1,0,17.53,22.76,22.76,0,0,1-11.88,12A21.36,21.36,0,0,1,34,86.42ZM20.37,63.9a13.25,13.25,0,0,0,1.07,5.33,13.77,13.77,0,0,0,2.91,4.36,13.63,13.63,0,0,0,4.31,2.94,13.59,13.59,0,0,0,10.57,0,13.69,13.69,0,0,0,7.23-7.3,13.84,13.84,0,0,0,0-10.67,13.69,13.69,0,0,0-7.23-7.3,13.59,13.59,0,0,0-10.57,0,13.63,13.63,0,0,0-4.31,2.94,13.77,13.77,0,0,0-2.91,4.36A13.27,13.27,0,0,0,20.37,63.9Z"/><path d="M145.49,31.19h21.92L174.88,54l7.46-22.81h14.17L204,54l7.47-22.81h21.92L212,96.5h-16.1l-6.49-19.78-6.5,19.78h-16.1Zm31,57.48,12.91-41,12.89,41h2.43L221,39h-2.62L203.59,84.16,189.43,39,175.26,84.16,160.52,39H157.9l16.2,49.65Z"/><path d="M234.82,31.19h21.92V96.5H234.82ZM247,88.67V39h-2.52V88.67Z"/><path d="M263.52,31.19h21.54V79.37H302.9V96.5H263.52Zm34,57.48V86.32H275.75V39h-2.52V88.67Z"/><path d="M306.3,96.5V31.19h17.94a58.74,58.74,0,0,1,16.25,2.05,32.62,32.62,0,0,1,12,6.17A26.66,26.66,0,0,1,360,49.65a36.16,36.16,0,0,1,2.57,14.15A36.2,36.2,0,0,1,360,78a26.55,26.55,0,0,1-7.46,10.23,33.15,33.15,0,0,1-12,6.22,57.54,57.54,0,0,1-16.25,2.1Zm9.7-7.83h8.24q14.16,0,21.39-6.51t7.22-18.36q0-11.85-7.22-18.32T324.24,39H316Zm2.52-2.35V41.37h5.72q12.31,0,19.16,5.63t6.84,16.8q0,11.16-6.84,16.84t-19.16,5.68ZM327,77.9q7.28,0,11.25-3.48c2.65-2.31,4-5.86,4-10.62s-1.33-8.29-4-10.58-6.4-3.43-11.25-3.43Z"/></g><g id="cuerno"><path d="M95.3,49.24S59.12,106.51,57.62,110s26.62,7.53,32.15-3.52,10.55-39.19,13.57-30.15,4.52,21.61,8,28.14S141.52,111,149.56,109,130,87.92,111.37,49.24c0,0,38.69-4,30.65-49.24a91.65,91.65,0,0,1-12.89,11.9c-.65.48-.51-1.31-1.18-.85-1.16.81-3.16,3.86-4.39,4.58a32.57,32.57,0,0,1-11.68,4.47c-7.78,1.07-18.23-.4-26.13-5C78.86,11,74.05,4.13,72.69.5,71.18-3.52,48.57,42.2,95.3,49.24Z"/><path class="cls-1" d="M74.75,47.35c-2.46,0-4.46-2.7-4.46-6a7.1,7.1,0,0,1,1.49-4.49A5.84,5.84,0,0,0,70.92,40c0,2.72,1.72,4.94,3.83,4.94s3.82-2.22,3.82-4.94c0-.29,0-.6.05-.94s0-.55,0-.86a15.71,15.71,0,0,1,.53,3.17C79.2,44.65,77.2,47.35,74.75,47.35Z"/><path d="M70.67,41.22c.45,2.33,2.1,4.06,4.08,4.06s3.62-1.73,4.08-4.05v.1C78.83,44.44,77,47,74.75,47s-4.08-2.54-4.08-5.65v-.11m4.71-6.32-.63,0c-2.67,0-4.83,2.86-4.83,6.4s2.16,6.4,4.83,6.4,4.83-2.87,4.83-6.4c0-1.35-.85-4.91-1.21-4.91,0,0,0,0-.06,0a2.63,2.63,0,0,0,0,1c0,1-.11,1.81-.11,2.47,0,2.52-1.55,4.57-3.45,4.57S71.3,42.48,71.3,40s1.54-4.57,3.45-4.57c.15,0,.35,0,.53,0s.4,0,.45.22.1.22.15.22.24-.54.19-.63a.74.74,0,0,0-.69-.27Z"/><path class="cls-1" d="M82.48,48.36c-1.46,0-2.64-1.63-2.64-3.62A5.33,5.33,0,0,1,80,43.8v.08c0,1.78,1.13,3.23,2.53,3.23S85,45.66,85,43.88v-.2a5.14,5.14,0,0,1,.11,1.06C85.11,46.73,83.93,48.36,82.48,48.36Z"/><path d="M84.24,46.74a1.88,1.88,0,0,1-3.53,0,2.45,2.45,0,0,0,3.53,0m-2.16-6a.46.46,0,0,0-.43.17c0,.05,0,.39.12.39s.06,0,.09-.14S82,41,82.14,41h.34c1.18,0,2.15,1.28,2.15,2.85s-1,2.86-2.15,2.86-2.16-1.28-2.16-2.86c0-.41-.07-.9-.07-1.54,0,0,.09-.5,0-.63s0,0,0,0c-.22,0-.75,2.22-.75,3.06,0,2.21,1.35,4,3,4s3-1.78,3-4-1.35-4-3-4l-.4,0Z"/></g></g></svg>