<svg xmlns="http://www.w3.org/2000/svg" viewBox="0 0 346.36 113.73"><defs><style>.cls-1{fill:#fff;}</style></defs><title>2_1</title><g id="Capa_2" data-name="Capa 2"><g id="Capa_1-2" data-name="Capa 1"><path d="M33.85,100.44a12.22,12.22,0,0,1-4.56-.54c-1.68-.49-3.33-1-4.95-1.52q-2.89-.78-9.11-2.83Q7.46,92.12,3.49,82,0,73.12,0,60.49a98.8,98.8,0,0,1,3.49-24Q8.25,18.08,15.81,18.09a7.41,7.41,0,0,1,1.89.34,14.63,14.63,0,0,0,1.89.44q7.18-2.06,9.22-2.06c.64,0,1.29,0,1.94.1Q42.39,18.38,49.08,31.6q6,12,6,28.5,0,15.66-5.43,26.93Q43.84,99.27,33.85,100.44ZM32.1,28.66c-1.42-.39-2.83,1.54-4.21,5.78s-2.8,6.37-4.22,6.37a3.15,3.15,0,0,1-1.41-.54,5.05,5.05,0,0,0-1.5-.64q-3.3,7.35-3.3,21A65.77,65.77,0,0,0,19.69,78.9q2.52,8.52,7,9.4,5.25,1,8.44-10.87a95,95,0,0,0,2.81-24.68A76.59,76.59,0,0,0,36.47,36.5Q34.91,29.45,32.1,28.66Z"/><path d="M216.1,24.75q-7.47,13.8-13.58,42-5,23.1-4.66,28a4.2,4.2,0,0,0,.1,2,4.77,4.77,0,0,1,.2,1.76q-.69,4.6-2.62,4.9-1.56.28-9.7-3.43-8.44-3.61-9-5.38c-.07-.13-.16-2.16-.29-6.08A126.83,126.83,0,0,1,171,62.25q-2.72,7.05-5.34,14.1a44.49,44.49,0,0,0-2.33,15.18,7,7,0,0,0,0,2.35,6.37,6.37,0,0,1,.1,2.45c-.58,2.8-1.49,4.4-2.71,4.8a5.09,5.09,0,0,1-1.56.19,29.77,29.77,0,0,1-10.08-2c-4.59-1.64-7.21-3.59-7.86-5.88A46.94,46.94,0,0,0,141,88.3a204.49,204.49,0,0,1-6.11-30.36,239.17,239.17,0,0,1-1.26-31.63q-.89-4.61-.49-5.77,1.26-4.21,3.49-4.12c1.68.07,4.37,1.08,8.05,3s5.66,3.52,5.92,4.7a52.58,52.58,0,0,1-.29,5.58c-.26,3-.39,5.78-.39,8.32q0,8.32,2.81,27.23l13.58-43a16.17,16.17,0,0,1,1.16-3.53A4.62,4.62,0,0,1,170.42,17q1.07-.2,7.75,3.08T185,24.65c0,.46-.06,2.64-.19,6.56q-.28,7-.29,12.14A132.67,132.67,0,0,0,186,65.19q2.63-13.51,6.79-27.91a148.2,148.2,0,0,1,5-15.57q1.06-4.89,5.14-4.31a27.4,27.4,0,0,1,7.17,2.25Q215.22,22,216.1,24.75Z"/><path d="M242.19,22a5.75,5.75,0,0,1-.44,1.86c-.29.79-.47,1.28-.53,1.47a45.75,45.75,0,0,0-1.17,6.07V91.53a3.9,3.9,0,0,0,.59,2.11,3.17,3.17,0,0,1,.58,1.51q0,6.27-2.33,6.76c-.58.13-2.85-.29-6.79-1.27-4.14-1-6.53-1.86-7.18-2.45-1.42-1.24-2.13-2.38-2.13-3.43a1.49,1.49,0,0,1,.39-.88,2.79,2.79,0,0,0,.39-1.66v-69a2.65,2.65,0,0,0-.34-1.22,2.6,2.6,0,0,1-.34-1.23c.12-1.57,1.32-2.61,3.58-3.13a23.94,23.94,0,0,1,4.47,0,35.74,35.74,0,0,1,7,1.07C240.76,19.46,242.19,20.57,242.19,22Z"/><path d="M295.05,86.05q-1.17,4.61-3.69,5.58a4.3,4.3,0,0,1-2.08.1,3.46,3.46,0,0,0-1.9.09L273,97.9a3.58,3.58,0,0,0-1.41,1.66c-.48.91-.95,1.43-1.4,1.57q-2.14.78-9-1.47c-4.6-1.51-7.37-2.91-8.35-4.21q-1.07-1.58-.67-4.9a23.28,23.28,0,0,0,.19-2.45V22.3a3.64,3.64,0,0,0-.78-1.67,2,2,0,0,1-.58-1.17c.13-1.24,1.26-2.16,3.4-2.74,1.35-.33,4.3.16,8.82,1.47q7.66,2.25,7.76,5.28a4.85,4.85,0,0,1-1.07,2.35,5,5,0,0,0-1.06,2.35V82.33L279,77.92a12.1,12.1,0,0,1,3.29-1.76c.91-.13,3.33,1.25,7.28,4.16S295.3,85.13,295.05,86.05Z"/><path d="M346.36,49.91q0,10.68-5.73,23.21a94.8,94.8,0,0,1-11.44,19q-6.12,7.63-9,8.91a8.78,8.78,0,0,1-3.3.59,22,22,0,0,1-9.7-2.75A22.82,22.82,0,0,1,299.9,94V23.47a3.23,3.23,0,0,1,2.91-3,34.06,34.06,0,0,1,4.85.68c.58.07,2.5-.62,5.77-2.05a21.49,21.49,0,0,1,8.39-2.16A16,16,0,0,1,330,19.16a58.06,58.06,0,0,1,6.7,5.29q6.49,5.68,8.43,12Q346.35,40.62,346.36,49.91ZM330.25,31a3.17,3.17,0,0,0-1.55-.29q-5.15,0-12.32,4.5V79.29q6.6-3.83,11.26-18.7a79.48,79.48,0,0,0,4-23.31C331.61,33.62,331.16,31.54,330.25,31Z"/></g><g id="cuerno"><path d="M82.81,49.24S46.64,106.51,45.13,110s26.63,7.53,32.16-3.52S87.84,67.32,90.85,76.36s4.52,21.61,8,28.14S129,111,137.07,109s-19.59-21.1-38.18-59.78c0,0,38.68-4,30.64-49.24a91,91,0,0,1-12.89,11.9c-.64.48-.5-1.31-1.17-.85-1.16.81-3.17,3.86-4.39,4.58A32.62,32.62,0,0,1,99.39,20.1c-7.78,1.07-18.22-.4-26.12-5C66.37,11,61.56,4.13,60.2.5,58.7-3.52,36.09,42.2,82.81,49.24Z"/><path class="cls-1" d="M62.26,47.35c-2.46,0-4.45-2.7-4.45-6a7.1,7.1,0,0,1,1.48-4.49A5.93,5.93,0,0,0,58.44,40c0,2.72,1.71,4.94,3.82,4.94s3.83-2.22,3.83-4.94c0-.29,0-.6,0-.94s0-.55.05-.86a15.11,15.11,0,0,1,.54,3.17C66.72,44.65,64.72,47.35,62.26,47.35Z"/><path d="M58.18,41.22c.45,2.33,2.11,4.06,4.08,4.06s3.63-1.73,4.08-4.05v.1c0,3.11-1.83,5.65-4.08,5.65s-4.08-2.54-4.08-5.65v-.11M62.9,34.9c-.22,0-.44,0-.64,0-2.67,0-4.83,2.86-4.83,6.4s2.16,6.4,4.83,6.4,4.83-2.87,4.83-6.4c0-1.35-.84-4.91-1.2-4.91,0,0,0,0-.07,0a2.63,2.63,0,0,0,0,1c0,1-.11,1.81-.11,2.47,0,2.52-1.54,4.57-3.45,4.57S58.81,42.48,58.81,40s1.55-4.57,3.45-4.57c.16,0,.35,0,.53,0s.41,0,.46.22.1.22.14.22.25-.54.2-.63a.75.75,0,0,0-.69-.27Z"/><path class="cls-1" d="M70,48.36c-1.45,0-2.64-1.63-2.64-3.62a5.33,5.33,0,0,1,.11-.94v.08c0,1.78,1.14,3.23,2.53,3.23s2.53-1.45,2.53-3.23a1.27,1.27,0,0,0,0-.2,4.53,4.53,0,0,1,.12,1.06C72.63,46.73,71.45,48.36,70,48.36Z"/><path d="M71.76,46.74a1.88,1.88,0,0,1-3.54,0,2.46,2.46,0,0,0,3.54,0m-2.17-6a.47.47,0,0,0-.43.17c0,.05,0,.39.13.39s0,0,.08-.14.15-.13.29-.13H70c1.19,0,2.15,1.28,2.15,2.85s-1,2.86-2.15,2.86-2.15-1.28-2.15-2.86c0-.41-.07-.9-.07-1.54a1.63,1.63,0,0,0,0-.63.05.05,0,0,0,0,0c-.23,0-.75,2.22-.75,3.06,0,2.21,1.35,4,3,4s3-1.78,3-4-1.34-4-3-4l-.4,0Z"/></g></g></svg>